# xmcd
#
# Track frame offsets: 
#        183
#        44320
#        93110
#        142673
#        205505
#        244453
#
# Disc length: 3942 seconds
#
# Revision: 8
# Processed by: cddbd v1.5.2PL0 Copyright (c) Steve Scherf et al.
# Submitted via: ExactAudioCopy v0.99pb5
#
DISCID=440f6406
DTITLE=Rachmaninoff Sergey - Rachmaninoff. His Complete Recordings [CD
DTITLE=1-10)
DYEAR=1992
DGENRE=Classical
TTITLE0=Concerto No.2 In C Minor Op.18 - I Moderato - Allegro
TTITLE1=Concerto No.2 In C Minor Op.18 - II Adagio Sostenuto
TTITLE2=Concerto No.2 In C Minor Op.18 - III Allegro Scherzando
TTITLE3=Concerto No.3 In D Minor Op.30 - I Allegro Ma Non Tanto
TTITLE4=Concerto No.3 In D Minor Op.30 - II Intermezzo - Adagio
TTITLE5=Concerto No.3 In D Minor Op.30 - III Finale - Alla Breve
EXTD=
EXTT0=
EXTT1=
EXTT2=
EXTT3=
EXTT4=
EXTT5=
PLAYORDER=
